<svg width="25" height="25" viewBox="0 0 25 25" fill="none" xmlns="http://www.w3.org/2000/svg">
<g clip-path="url(#clip0_35_12)">
<path d="M12.5 2.08331C6.75001 2.08331 2.08334 6.74998 2.08334 12.5C2.08334 18.25 6.75001 22.9166 12.5 22.9166C18.25 22.9166 22.9167 18.25 22.9167 12.5C22.9167 6.74998 18.25 2.08331 12.5 2.08331ZM12.5 6.24998C14.5104 6.24998 16.1458 7.8854 16.1458 9.89581C16.1458 11.9062 14.5104 13.5416 12.5 13.5416C10.4896 13.5416 8.85418 11.9062 8.85418 9.89581C8.85418 7.8854 10.4896 6.24998 12.5 6.24998ZM12.5 20.8333C10.3854 20.8333 7.88543 19.9791 6.10418 17.8333C7.86459 16.4583 10.0833 15.625 12.5 15.625C14.9167 15.625 17.1354 16.4583 18.8958 17.8333C17.1146 19.9791 14.6146 20.8333 12.5 20.8333Z" fill="white"/>
</g>
<defs>
<clipPath id="clip0_35_12">
<rect width="25" height="25" rx="12.5" fill="white"/>
</clipPath>
</defs>
</svg>
