<svg width="22" height="22" viewBox="0 0 22 22" fill="none" xmlns="http://www.w3.org/2000/svg">
<path d="M9.16665 14.6666H12.8333C13.093 14.6666 13.3107 14.5788 13.4864 14.4031C13.6621 14.2274 13.75 14.0097 13.75 13.75V11.9166H11.9166V12.8333H10.0833V9.16665H11.9166V10.0833H13.75V8.24998C13.75 7.99026 13.6621 7.77255 13.4864 7.59685C13.3107 7.42116 13.093 7.33331 12.8333 7.33331H9.16665C8.90692 7.33331 8.68922 7.42116 8.51352 7.59685C8.33783 7.77255 8.24998 7.99026 8.24998 8.24998V13.75C8.24998 14.0097 8.33783 14.2274 8.51352 14.4031C8.68922 14.5788 8.90692 14.6666 9.16665 14.6666ZM11 20.1666C9.73192 20.1666 8.54026 19.926 7.42498 19.4448C6.3097 18.9635 5.33956 18.3104 4.51456 17.4854C3.68956 16.6604 3.03644 15.6903 2.55519 14.575C2.07394 13.4597 1.83331 12.268 1.83331 11C1.83331 9.73192 2.07394 8.54026 2.55519 7.42498C3.03644 6.3097 3.68956 5.33956 4.51456 4.51456C5.33956 3.68956 6.3097 3.03644 7.42498 2.55519C8.54026 2.07394 9.73192 1.83331 11 1.83331C12.268 1.83331 13.4597 2.07394 14.575 2.55519C15.6903 3.03644 16.6604 3.68956 17.4854 4.51456C18.3104 5.33956 18.9635 6.3097 19.4448 7.42498C19.926 8.54026 20.1666 9.73192 20.1666 11C20.1666 12.268 19.926 13.4597 19.4448 14.575C18.9635 15.6903 18.3104 16.6604 17.4854 17.4854C16.6604 18.3104 15.6903 18.9635 14.575 19.4448C13.4597 19.926 12.268 20.1666 11 20.1666ZM11 18.3333C13.0472 18.3333 14.7812 17.6229 16.2021 16.2021C17.6229 14.7812 18.3333 13.0472 18.3333 11C18.3333 8.95276 17.6229 7.21873 16.2021 5.7979C14.7812 4.37706 13.0472 3.66665 11 3.66665C8.95276 3.66665 7.21873 4.37706 5.7979 5.7979C4.37706 7.21873 3.66665 8.95276 3.66665 11C3.66665 13.0472 4.37706 14.7812 5.7979 16.2021C7.21873 17.6229 8.95276 18.3333 11 18.3333Z" fill="#ECECEC"/>
</svg>
