<svg width="24" height="24" viewBox="0 0 24 24" fill="none" xmlns="http://www.w3.org/2000/svg">
<g clip-path="url(#clip0_40_9)">
<rect width="24" height="24" rx="12" fill="#FFFDFD"/>
<path d="M6.66667 7.375H18.6667V6H6.66667C5.93333 6 5.33333 6.61875 5.33333 7.375V14.9375H4V17H13.3333V14.9375H6.66667V7.375ZM19.3333 8.75H15.3333C14.9667 8.75 14.6667 9.05937 14.6667 9.4375V16.3125C14.6667 16.6906 14.9667 17 15.3333 17H19.3333C19.7 17 20 16.6906 20 16.3125V9.4375C20 9.05937 19.7 8.75 19.3333 8.75ZM18.6667 14.9375H16V10.125H18.6667V14.9375Z" fill="#303030"/>
</g>
<defs>
<clipPath id="clip0_40_9">
<rect width="24" height="24" rx="12" fill="white"/>
</clipPath>
</defs>
</svg>
