<svg width="24" height="24" viewBox="0 0 24 24" fill="none" xmlns="http://www.w3.org/2000/svg">
<g clip-path="url(#clip0_37_18)">
<rect width="24" height="24" rx="12" fill="white"/>
<path d="M0 12C0 18.6274 5.37258 24 12 24C18.6274 24 24 18.6274 24 12C24 5.37258 18.6274 0 12 0C5.37258 0 0 5.37258 0 12Z" fill="white"/>
<path d="M13.4482 6.34884C14.3586 6.34884 15.1034 5.59535 15.1034 4.67442C15.1034 3.75349 14.3586 3 13.4482 3C12.5379 3 11.793 3.75349 11.793 4.67442C11.793 5.59535 12.5379 6.34884 13.4482 6.34884ZM16.7586 10.7693C15.7407 10.4595 14.9213 9.78977 14.4413 8.94419L13.6137 7.60465C13.2744 7.06046 12.6951 6.76744 12.091 6.76744C11.4454 6.76744 10.7751 7.18605 10.6178 7.97302C10.4606 8.76 8.06883 21 8.06883 21H9.80678L11.2965 14.3023L13.0344 15.9767V21H14.6896V14.7209L12.9517 13.0465L13.4482 10.5349C14.2758 11.4977 15.4427 12.2177 16.7586 12.494V21H18V9.27907H16.7586V10.7693ZM8.4247 12.7367L6.67019 12.3935C6.22329 12.3014 5.92535 11.866 6.01639 11.414L6.64536 8.12372C6.81916 7.21953 7.68813 6.62512 8.58194 6.80093L9.54195 6.99349L8.4247 12.7367Z" fill="#303030"/>
</g>
<defs>
<clipPath id="clip0_37_18">
<rect width="24" height="24" rx="12" fill="white"/>
</clipPath>
</defs>
</svg>
