<svg width="24" height="24" viewBox="0 0 24 24" fill="none" xmlns="http://www.w3.org/2000/svg">
<g clip-path="url(#clip0_37_92)">
<rect width="24" height="24" rx="12" fill="white"/>
<path d="M16.1905 10.8571C17.3257 10.8571 18.3771 11.2152 19.2381 11.8171V8.57143C19.2381 7.72571 18.56 7.04762 17.7143 7.04762H14.6667V5.52381C14.6667 4.6781 13.9886 4 13.1429 4H10.0952C9.24952 4 8.57143 4.6781 8.57143 5.52381V7.04762H5.52381C4.6781 7.04762 4.00762 7.72571 4.00762 8.57143L4 16.9524C4 17.7981 4.6781 18.4762 5.52381 18.4762H11.3752C11.0476 17.7829 10.8571 17.0133 10.8571 16.1905C10.8571 13.2419 13.2419 10.8571 16.1905 10.8571ZM10.0952 5.52381H13.1429V7.04762H10.0952V5.52381Z" fill="#303030"/>
<path d="M16.1905 12.381C14.0876 12.381 12.381 14.0876 12.381 16.1905C12.381 18.2934 14.0876 20 16.1905 20C18.2934 20 20 18.2934 20 16.1905C20 14.0876 18.2934 12.381 16.1905 12.381ZM17.4476 17.981L15.8096 16.3429V13.9048H16.5715V16.0305L17.981 17.44L17.4476 17.981Z" fill="#303030"/>
</g>
<defs>
<clipPath id="clip0_37_92">
<rect width="24" height="24" rx="12" fill="white"/>
</clipPath>
</defs>
</svg>
